# xmcd CD database file
#
# Track frame offsets:
#	150
#	24829
#	50104
#	78433
#	85633
#	111553
#	143582
#	171598
#	195645
#
# Disc length: 3039 seconds
#
# Revision: 1
# Processed by: cddbd v1.5.2PL0 Copyright (c) Steve Scherf et al.
# Submitted via: CDex 1.70beta2
#
DISCID=740bdd09
DTITLE=New Age Harmony - Yoga
DYEAR=2006
DGENRE=New Age
TTITLE0=Anja
TTITLE1=Chakra
TTITLE2=Darshan
TTITLE3=Jap Ji
TTITLE4=Jyoti
TTITLE5=Nukta
TTITLE6=Sukhmana
TTITLE7=Vina
TTITLE8=Water
EXTD=YEAR: 2006
EXTT0=
EXTT1=
EXTT2=
EXTT3=
EXTT4=
EXTT5=
EXTT6=
EXTT7=
EXTT8=
PLAYORDER=
